<svg width="270" height="200" viewBox="0 0 270 200" fill="none" xmlns="http://www.w3.org/2000/svg">
<path d="M135 200C192.485 200 239.085 197.279 239.085 193.923C239.085 190.567 192.485 187.846 135 187.846C77.5154 187.846 30.9148 190.567 30.9148 193.923C30.9148 197.279 77.5154 200 135 200Z" fill="#F5F5F5"/>
<path d="M166.013 34.84C165.576 33.3975 164.997 32.002 164.284 30.6742L165.358 27.158L158.416 20.2115L154.9 21.2851C153.572 20.5721 152.177 19.9931 150.734 19.5566L149.006 16.3356H139.182L137.459 19.5566C136.016 19.9921 134.62 20.5712 133.293 21.2851L129.777 20.2115L122.83 27.158L123.904 30.6742C123.195 32.0033 122.618 33.3985 122.181 34.84L118.933 36.5686V46.3925L122.181 48.1157C122.617 49.5576 123.194 50.9529 123.904 52.2815L122.83 55.7977L129.777 62.7442L133.293 61.6706C134.622 62.3806 136.017 62.9578 137.459 63.3938L139.182 66.6148H149.006L150.734 63.3938C152.176 62.9567 153.571 62.3795 154.9 61.6706L158.416 62.7442L165.363 55.7977L164.289 52.2815C165.003 50.9542 165.582 49.5586 166.018 48.1157L169.266 46.3925V36.5686L166.013 34.84ZM144.094 55.4327C141.333 55.4327 138.635 54.6141 136.34 53.0804C134.044 51.5467 132.255 49.3669 131.199 46.8165C130.142 44.2661 129.866 41.4597 130.405 38.7522C130.943 36.0447 132.272 33.5577 134.224 31.6057C136.176 29.6538 138.663 28.3244 141.371 27.7859C144.078 27.2473 146.885 27.5237 149.435 28.5801C151.986 29.6366 154.165 31.4255 155.699 33.7208C157.233 36.0161 158.051 38.7146 158.051 41.4752C158.051 45.1769 156.581 48.7271 153.963 51.3446C151.346 53.9621 147.796 55.4327 144.094 55.4327Z" fill="#3D3FDF"/>
<path opacity="0.2" d="M166.013 34.84C165.576 33.3975 164.997 32.002 164.284 30.6742L165.358 27.158L158.416 20.2115L154.9 21.2851C153.572 20.5721 152.177 19.9931 150.734 19.5566L149.006 16.3356H139.182L137.459 19.5566C136.016 19.9921 134.62 20.5712 133.293 21.2851L129.777 20.2115L122.83 27.158L123.904 30.6742C123.195 32.0033 122.618 33.3985 122.181 34.84L118.933 36.5686V46.3925L122.181 48.1157C122.617 49.5576 123.194 50.9529 123.904 52.2815L122.83 55.7977L129.777 62.7442L133.293 61.6706C134.622 62.3806 136.017 62.9578 137.459 63.3938L139.182 66.6148H149.006L150.734 63.3938C152.176 62.9567 153.571 62.3795 154.9 61.6706L158.416 62.7442L165.363 55.7977L164.289 52.2815C165.003 50.9542 165.582 49.5586 166.018 48.1157L169.266 46.3925V36.5686L166.013 34.84ZM144.094 55.4327C141.333 55.4327 138.635 54.6141 136.34 53.0804C134.044 51.5467 132.255 49.3669 131.199 46.8165C130.142 44.2661 129.866 41.4597 130.405 38.7522C130.943 36.0447 132.272 33.5577 134.224 31.6057C136.176 29.6538 138.663 28.3244 141.371 27.7859C144.078 27.2473 146.885 27.5237 149.435 28.5801C151.986 29.6366 154.165 31.4255 155.699 33.7208C157.233 36.0161 158.051 38.7146 158.051 41.4752C158.051 45.1769 156.581 48.7271 153.963 51.3446C151.346 53.9621 147.796 55.4327 144.094 55.4327Z" fill="white"/>
<path d="M144.094 36.8531C143.179 36.8531 142.284 37.1245 141.523 37.633C140.762 38.1415 140.169 38.8642 139.819 39.7097C139.469 40.5553 139.377 41.4857 139.555 42.3833C139.734 43.281 140.175 44.1055 140.822 44.7527C141.469 45.3998 142.294 45.8405 143.191 46.0191C144.089 46.1976 145.019 46.106 145.865 45.7558C146.71 45.4055 147.433 44.8124 147.942 44.0514C148.45 43.2905 148.721 42.3958 148.721 41.4806C148.721 40.2533 148.234 39.0763 147.366 38.2085C146.498 37.3406 145.321 36.8531 144.094 36.8531Z" fill="#3D3FDF"/>
<path d="M235.923 50.4241C235.299 48.3618 234.474 46.3659 233.459 44.4653L234.995 39.4406L225.079 29.5254L220.049 31.0661C218.155 30.0396 216.16 29.2121 214.096 28.5967L211.632 23.9585H197.594L195.124 28.5967C193.061 29.214 191.066 30.0415 189.171 31.0661L184.146 29.5254L174.22 39.4513L175.756 44.476C174.736 46.3745 173.911 48.3708 173.292 50.4348L168.648 52.8988V66.9368L173.286 69.4062C173.905 71.4688 174.73 73.4635 175.75 75.3596L174.215 80.379L184.141 90.3049L189.166 88.7696C191.063 89.791 193.059 90.6148 195.124 91.2282L197.594 95.8718H211.632L214.096 91.2336C216.159 90.6136 218.153 89.7862 220.049 88.7642L225.079 90.2995L235.005 80.3736L233.47 75.3489C234.482 73.4502 235.304 71.456 235.923 69.3955L240.561 66.9261V52.8881L235.923 50.4241ZM204.61 85.3554C199.576 85.3554 194.656 83.8627 190.47 81.0661C186.285 78.2695 183.023 74.2946 181.097 69.6441C179.17 64.9935 178.666 59.8762 179.648 54.9392C180.63 50.0022 183.054 45.4673 186.614 41.9079C190.173 38.3485 194.708 35.9245 199.645 34.9425C204.582 33.9605 209.699 34.4645 214.35 36.3908C219 38.3171 222.975 41.5792 225.772 45.7646C228.568 49.95 230.061 54.8707 230.061 59.9044C230.061 63.2467 229.403 66.5562 228.124 69.6441C226.845 72.7319 224.97 75.5376 222.607 77.901C220.243 80.2643 217.438 82.139 214.35 83.418C211.262 84.697 207.952 85.3554 204.61 85.3554Z" fill="#3D3FDF"/>
<path d="M204.61 38.0234C200.282 38.0244 196.051 39.309 192.452 41.7145C188.854 44.1201 186.049 47.5386 184.394 51.5379C182.738 55.5373 182.305 59.9377 183.15 64.1829C183.995 68.4281 186.08 72.3274 189.141 75.3877C192.202 78.448 196.102 80.532 200.348 81.376C204.593 82.2201 208.993 81.7864 212.992 80.1297C216.991 78.473 220.409 75.6677 222.814 72.0687C225.218 68.4696 226.502 64.2383 226.502 59.9098C226.495 54.1064 224.186 48.5428 220.082 44.4397C215.978 40.3366 210.414 38.0291 204.61 38.0234ZM204.61 78.8812C200.858 78.8823 197.189 77.7705 194.069 75.6866C190.948 73.6026 188.516 70.64 187.079 67.1736C185.642 63.7071 185.266 59.8924 185.997 56.2119C186.729 52.5315 188.535 49.1506 191.188 46.4968C193.841 43.8431 197.221 42.0357 200.902 41.3033C204.582 40.5708 208.397 40.9462 211.864 42.3819C215.331 43.8177 218.294 46.2493 220.379 49.3693C222.463 52.4892 223.576 56.1574 223.576 59.9098C223.571 64.9387 221.571 69.76 218.015 73.3164C214.46 76.8729 209.639 78.8741 204.61 78.8812Z" fill="#3D3FDF"/>
<path opacity="0.2" d="M204.61 38.0234C200.282 38.0244 196.051 39.309 192.452 41.7145C188.854 44.1201 186.049 47.5386 184.394 51.5379C182.738 55.5373 182.305 59.9377 183.15 64.1829C183.995 68.4281 186.08 72.3274 189.141 75.3877C192.202 78.448 196.102 80.532 200.348 81.376C204.593 82.2201 208.993 81.7864 212.992 80.1297C216.991 78.473 220.409 75.6677 222.814 72.0687C225.218 68.4696 226.502 64.2383 226.502 59.9098C226.495 54.1064 224.186 48.5428 220.082 44.4397C215.978 40.3366 210.414 38.0291 204.61 38.0234ZM204.61 78.8812C200.858 78.8823 197.189 77.7705 194.069 75.6866C190.948 73.6026 188.516 70.64 187.079 67.1736C185.642 63.7071 185.266 59.8924 185.997 56.2119C186.729 52.5315 188.535 49.1506 191.188 46.4968C193.841 43.8431 197.221 42.0357 200.902 41.3033C204.582 40.5708 208.397 40.9462 211.864 42.3819C215.331 43.8177 218.294 46.2493 220.379 49.3693C222.463 52.4892 223.576 56.1574 223.576 59.9098C223.571 64.9387 221.571 69.76 218.015 73.3164C214.46 76.8729 209.639 78.8741 204.61 78.8812Z" fill="black"/>
<path d="M154.326 97.2514C154.183 97.2514 154.047 97.1949 153.946 97.0942C153.845 96.9935 153.789 96.857 153.789 96.7146V95.641C153.789 95.4986 153.845 95.362 153.946 95.2614C154.047 95.1607 154.183 95.1041 154.326 95.1041C154.468 95.1041 154.604 95.1607 154.705 95.2614C154.806 95.362 154.862 95.4986 154.862 95.641V96.7146C154.862 96.857 154.806 96.9935 154.705 97.0942C154.604 97.1949 154.468 97.2514 154.326 97.2514Z" fill="#3D3FDF"/>
<path d="M145.967 83.3799C145.475 83.063 145.089 82.6045 144.862 82.0646C144.805 81.9336 144.699 81.8304 144.567 81.7775C144.435 81.7247 144.287 81.7266 144.156 81.7828C144.025 81.839 143.921 81.945 143.869 82.0774C143.816 82.2098 143.818 82.3577 143.874 82.4887C144.189 83.2219 144.714 83.8456 145.382 84.2817C145.469 84.3375 145.569 84.3673 145.672 84.3676C145.788 84.3685 145.902 84.3316 145.995 84.2625C146.089 84.1934 146.157 84.0959 146.191 83.9845C146.224 83.8732 146.22 83.754 146.18 83.645C146.14 83.5359 146.065 83.4429 145.967 83.3799Z" fill="#3D3FDF"/>
<path d="M144.094 76.6749C144.236 76.6749 144.373 76.6183 144.473 76.5177C144.574 76.417 144.63 76.2804 144.63 76.1381V74.082C144.63 73.9396 144.574 73.8031 144.473 73.7024C144.373 73.6018 144.236 73.5452 144.094 73.5452C143.951 73.5452 143.815 73.6018 143.714 73.7024C143.613 73.8031 143.557 73.9396 143.557 74.082V76.1381C143.557 76.2804 143.613 76.417 143.714 76.5177C143.815 76.6183 143.951 76.6749 144.094 76.6749Z" fill="#3D3FDF"/>
<path d="M149.682 83.8522H147.621C147.478 83.8522 147.342 83.9088 147.241 84.0095C147.141 84.1101 147.084 84.2467 147.084 84.3891C147.084 84.5314 147.141 84.668 147.241 84.7687C147.342 84.8693 147.478 84.9259 147.621 84.9259H149.682C149.825 84.9259 149.961 84.8693 150.062 84.7687C150.162 84.668 150.219 84.5314 150.219 84.3891C150.219 84.2467 150.162 84.1101 150.062 84.0095C149.961 83.9088 149.825 83.8522 149.682 83.8522Z" fill="#3D3FDF"/>
<path d="M144.63 80.2555V78.1995C144.63 78.0571 144.574 77.9206 144.473 77.8199C144.373 77.7192 144.236 77.6627 144.094 77.6627C143.951 77.6627 143.815 77.7192 143.714 77.8199C143.613 77.9206 143.557 78.0571 143.557 78.1995V80.2555C143.557 80.3979 143.613 80.5344 143.714 80.6351C143.815 80.7358 143.951 80.7924 144.094 80.7924C144.236 80.7924 144.373 80.7358 144.473 80.6351C144.574 80.5344 144.63 80.3979 144.63 80.2555Z" fill="#3D3FDF"/>
<path d="M154.83 87.3416C154.812 87.2008 154.738 87.0731 154.625 86.9865C154.512 86.9 154.37 86.8617 154.229 86.88C154.159 86.8916 154.092 86.9171 154.032 86.9548C153.972 86.9925 153.92 87.0417 153.879 87.0996C153.838 87.1575 153.809 87.2229 153.794 87.2921C153.778 87.3613 153.777 87.4328 153.789 87.5027C153.806 87.6272 153.815 87.7527 153.816 87.8785V89.4889C153.816 89.6313 153.872 89.7679 153.973 89.8685C154.074 89.9692 154.21 90.0258 154.353 90.0258C154.495 90.0258 154.632 89.9692 154.732 89.8685C154.833 89.7679 154.889 89.6313 154.889 89.4889V87.8785C154.881 87.6984 154.862 87.5191 154.83 87.3416Z" fill="#3D3FDF"/>
<path d="M154.326 90.9867C154.183 90.9867 154.047 91.0433 153.946 91.1439C153.845 91.2446 153.789 91.3811 153.789 91.5235V93.5849C153.789 93.7273 153.845 93.8639 153.946 93.9645C154.047 94.0652 154.183 94.1218 154.326 94.1218C154.468 94.1218 154.604 94.0652 154.705 93.9645C154.806 93.8639 154.862 93.7273 154.862 93.5849V91.5235C154.862 91.3811 154.806 91.2446 154.705 91.1439C154.604 91.0433 154.468 90.9867 154.326 90.9867Z" fill="#3D3FDF"/>
<path d="M153.859 85.2104C153.333 84.6102 152.639 84.1819 151.867 83.9811C151.799 83.9634 151.727 83.9595 151.658 83.9693C151.588 83.9792 151.52 84.0028 151.46 84.0387C151.399 84.0746 151.346 84.1221 151.303 84.1785C151.261 84.235 151.23 84.2992 151.212 84.3676C151.194 84.436 151.19 84.5071 151.2 84.5771C151.21 84.647 151.234 84.7143 151.27 84.7751C151.306 84.8359 151.353 84.8891 151.41 84.9315C151.466 84.974 151.53 85.0049 151.599 85.0225C152.163 85.1681 152.67 85.4805 153.053 85.919C153.104 85.9763 153.166 86.0222 153.235 86.0536C153.304 86.0851 153.38 86.1014 153.456 86.1015C153.559 86.1014 153.66 86.0715 153.747 86.0155C153.833 85.9595 153.902 85.8797 153.945 85.7857C153.987 85.6917 154.002 85.5875 153.986 85.4854C153.971 85.3834 153.927 85.2879 153.859 85.2104Z" fill="#3D3FDF"/>
<path d="M144.094 72.5359C143.951 72.5359 143.815 72.4794 143.714 72.3787C143.613 72.278 143.557 72.1415 143.557 71.9991V70.9255C143.557 70.7831 143.613 70.6465 143.714 70.5459C143.815 70.4452 143.951 70.3886 144.094 70.3886C144.236 70.3886 144.373 70.4452 144.473 70.5459C144.574 70.6465 144.63 70.7831 144.63 70.9255V71.9991C144.63 72.1415 144.574 72.278 144.473 72.3787C144.373 72.4794 144.236 72.5359 144.094 72.5359Z" fill="#3D3FDF"/>
<path d="M179.755 124.281H55.4586V126.272H179.755V124.281Z" fill="#3D3FDF"/>
<path d="M179.755 126.272H206.725V124.281H179.755V126.272Z" fill="#3D3FDF"/>
<path opacity="0.2" d="M179.755 126.272H206.725V124.281H179.755V126.272Z" fill="black"/>
<path d="M197.718 128.403H64.4665L60.0109 126.272H202.173L197.718 128.403Z" fill="#3D3FDF"/>
<path opacity="0.6" d="M197.718 128.403H64.4665L60.0109 126.272H202.173L197.718 128.403Z" fill="white"/>
<path d="M68.4926 128.403V191.931H70.1997L72.347 128.403H68.4926Z" fill="#3D3FDF"/>
<path d="M88.6454 128.403V191.931H90.3525L92.4998 128.403H88.6454Z" fill="#3D3FDF"/>
<path d="M197.717 128.403V191.931H196.016L193.863 128.403H197.717Z" fill="#3D3FDF"/>
<path d="M177.571 128.403V191.931H175.863L173.716 128.403H177.571Z" fill="#3D3FDF"/>
<path d="M137.008 100.166L131.398 123.019L131.242 124.281H169.937L170.098 123.019L175.702 100.166H137.008Z" fill="#3D3FDF"/>
<path opacity="0.3" d="M137.008 100.166L131.398 123.019L131.242 124.281H169.937L170.098 123.019L175.702 100.166H137.008Z" fill="black"/>
<path d="M174.516 100.166H135.816L130.212 123.019H168.906L174.516 100.166Z" fill="#3D3FDF"/>
<path d="M168.085 121.972L173.184 101.213H136.637L131.543 121.972H168.085Z" fill="white"/>
<path d="M158.824 123.019L158.663 124.281H116.056L116.211 123.019H158.824Z" fill="#3D3FDF"/>
<path opacity="0.6" d="M158.824 123.019L158.663 124.281H116.056L116.211 123.019H158.824Z" fill="white"/>
<path d="M78.3328 120.126C78.3058 119.308 77.9857 118.527 77.4308 117.926C76.876 117.325 76.1234 116.943 75.3105 116.851V116.234C75.3098 116.198 75.302 116.163 75.2875 116.13C75.273 116.097 75.2522 116.068 75.2262 116.043C75.2002 116.019 75.1696 116 75.1361 115.987C75.1027 115.975 75.067 115.969 75.0313 115.971H69.2336C69.1977 115.969 69.1618 115.975 69.128 115.987C69.0942 116 69.0632 116.019 69.0368 116.043C69.0104 116.068 68.989 116.097 68.974 116.13C68.9589 116.162 68.9505 116.198 68.9491 116.234V124.286H75.3105V123.406C76.1247 123.314 76.8786 122.932 77.4338 122.33C77.989 121.727 78.3082 120.945 78.3328 120.126ZM75.3105 122.364V117.892C75.847 117.971 76.3372 118.241 76.6916 118.651C77.046 119.062 77.241 119.586 77.241 120.128C77.241 120.671 77.046 121.195 76.6916 121.605C76.3372 122.016 75.847 122.285 75.3105 122.364Z" fill="#3D3FDF"/>
<path d="M186.836 124.281H192.226L190.631 112.476H186.836V124.281Z" fill="#263238"/>
<path d="M178.934 124.281H189.144L191.039 110.463H180.834L178.934 124.281Z" fill="#3D3FDF"/>
<path opacity="0.3" d="M178.934 124.281H189.144L191.039 110.463H180.834L178.934 124.281Z" fill="black"/>
<path d="M177.57 124.281H188.194L190.094 110.463H179.471L177.57 124.281Z" fill="#3D3FDF"/>
<path opacity="0.4" d="M187.255 123.191L188.855 111.552H180.41L178.811 123.191H187.255Z" fill="white"/>
<path d="M106.838 103.881L106.398 104.354L105.925 104.891C105.609 105.256 105.292 105.626 104.991 106.007C104.39 106.769 103.81 107.548 103.268 108.348C102.189 109.895 101.289 111.559 100.584 113.308C100.256 114.139 100.001 114.998 99.8217 115.874C99.7359 116.368 99.6822 116.583 99.6553 116.792C99.6256 116.959 99.6256 117.13 99.6553 117.297C99.7453 117.559 99.8866 117.801 100.071 118.008C100.255 118.216 100.479 118.384 100.729 118.504C101.091 118.728 101.472 118.92 101.867 119.079C102.075 119.165 102.289 119.245 102.511 119.32C102.715 119.396 102.973 119.471 103.134 119.535V122.493C102.758 122.547 102.484 122.59 102.168 122.611C101.851 122.633 101.545 122.638 101.228 122.611C100.577 122.598 99.9292 122.515 99.2957 122.364C98.5818 122.197 97.8976 121.921 97.2665 121.548C96.5243 121.114 95.8866 120.522 95.3983 119.814C94.8956 119.061 94.5623 118.207 94.4213 117.313C94.3853 117.103 94.362 116.892 94.3515 116.679C94.3408 116.475 94.3408 116.271 94.3515 116.067V115.767C94.3454 115.686 94.3454 115.605 94.3515 115.525L94.3944 115.053C94.5317 113.826 94.7907 112.615 95.1675 111.44C95.8945 109.182 96.918 107.03 98.2113 105.041C98.8326 104.064 99.5083 103.123 100.235 102.222C100.595 101.772 100.965 101.331 101.352 100.897C101.54 100.676 101.738 100.462 101.942 100.247C102.146 100.032 102.334 99.8443 102.613 99.5759L106.838 103.881Z" fill="#B55B52"/>
<path d="M102.066 119.471L104.567 117.635L105.99 122.778C105.99 122.778 103.773 123.599 102.082 122.493L102.066 119.471Z" fill="#B55B52"/>
<path d="M108.041 116.4L109.018 120.705L105.99 122.778L104.568 117.635L108.041 116.4Z" fill="#B55B52"/>
<path d="M123.861 84.1475C123.748 84.4643 123.829 84.781 124.038 84.8508C124.247 84.9206 124.505 84.7273 124.612 84.4106C124.72 84.0938 124.645 83.7717 124.441 83.702C124.237 83.6322 123.974 83.8254 123.861 84.1475Z" fill="#263238"/>
<path d="M123.802 84.7702C123.844 85.8758 124.037 86.9704 124.376 88.0234C124.106 88.1009 123.822 88.119 123.544 88.0763C123.266 88.0337 123.001 87.9314 122.766 87.7765L123.802 84.7702Z" fill="#A02724"/>
<path d="M123.345 81.9895C123.385 82.003 123.429 82.003 123.469 81.9895C123.704 81.9109 123.955 81.8894 124.201 81.9267C124.446 81.9641 124.679 82.0592 124.881 82.2042C124.921 82.2335 124.971 82.2465 125.021 82.2407C125.07 82.2348 125.116 82.2106 125.148 82.1727C125.181 82.1348 125.198 82.0861 125.196 82.0362C125.194 81.9864 125.174 81.939 125.138 81.9036C124.886 81.7158 124.593 81.591 124.283 81.5396C123.973 81.4883 123.655 81.5118 123.356 81.6083C123.317 81.6218 123.283 81.6471 123.259 81.6808C123.235 81.7145 123.222 81.7548 123.222 81.7962C123.222 81.8376 123.235 81.878 123.259 81.9117C123.283 81.9454 123.317 81.9707 123.356 81.9841L123.345 81.9895Z" fill="#263238"/>
<path d="M112.088 85.3178C112.689 88.3723 113.285 93.9714 111.149 96.0114C111.149 96.0114 111.986 99.1088 117.666 99.1088C123.909 99.1088 120.651 96.0114 120.651 96.0114C117.242 95.1954 117.328 92.6669 117.923 90.2942L112.088 85.3178Z" fill="#B55B52"/>
<path d="M110.333 97.0743C109.882 96.0919 109.393 94.9699 110.408 94.621C111.53 94.2345 117.671 93.8372 119.786 94.562C120.066 94.638 120.328 94.7691 120.556 94.9476C120.784 95.126 120.975 95.3482 121.116 95.6011C121.258 95.8541 121.347 96.1327 121.38 96.4206C121.412 96.7086 121.387 97.0002 121.306 97.2783L110.333 97.0743Z" fill="#263238"/>
<path d="M131.779 102.314C133.094 104.681 134.506 107.118 135.934 109.459C137.362 111.799 138.86 114.129 140.46 116.255C140.857 116.792 141.27 117.302 141.678 117.812C141.882 118.075 142.097 118.29 142.306 118.531L142.618 118.886L142.698 118.977L142.736 119.02L142.773 119.068C143.024 119.31 143.324 119.493 143.654 119.605C144.161 119.781 144.684 119.909 145.216 119.986C147.825 120.249 150.456 120.219 153.059 119.895L153.875 122.74C153.15 123.062 152.474 123.277 151.754 123.545C151.035 123.814 150.327 123.991 149.607 124.173C148.082 124.556 146.519 124.765 144.948 124.796C144.065 124.81 143.184 124.722 142.322 124.533C141.264 124.323 140.267 123.879 139.402 123.234L139.042 122.939L138.957 122.863L138.903 122.81L138.801 122.708L138.382 122.294C138.108 122.021 137.808 121.758 137.561 121.468C137.024 120.904 136.519 120.34 136.052 119.761C134.177 117.494 132.447 115.111 130.872 112.626C130.088 111.402 129.333 110.166 128.607 108.917C127.876 107.655 127.173 106.42 126.491 105.089L131.779 102.314Z" fill="#B55B52"/>
<path d="M103.671 96.9562C99.752 97.8527 95.2642 108.53 95.2642 108.53L103.129 113.898C105.085 111.093 106.82 108.141 108.32 105.068C110.644 100.204 107.676 96.0382 103.671 96.9562Z" fill="#3D3FDF"/>
<path opacity="0.2" d="M106.473 103.763L102.758 113.662L103.123 113.92C103.123 113.92 104.734 111.66 106.473 108.611V103.763Z" fill="black"/>
<path d="M127.077 97.1656C127.077 97.1656 131.521 102.19 127.323 133.272H104.975C104.825 129.842 106.978 113.115 103.671 96.9508C106.141 96.4753 108.638 96.1597 111.149 96.006C114.313 95.8207 117.486 95.8207 120.651 96.006C122.82 96.2244 124.968 96.6121 127.077 97.1656Z" fill="#3D3FDF"/>
<path opacity="0.2" d="M124.591 106.157C125.174 109.685 126.699 112.99 129.004 115.724C129.095 113.721 129.133 111.923 129.127 110.318L124.591 106.157Z" fill="black"/>
<path d="M122.653 100.558C122.116 104.515 129.9 114.618 129.9 114.618L137.733 109.25C137.733 109.25 135.559 103.683 131.903 100.032C127.737 95.845 123.265 96.253 122.653 100.558Z" fill="#3D3FDF"/>
<path d="M152.178 119.922L155.367 118.612L158.647 121.092C158.647 121.092 155.518 123.862 152.672 122.783L152.178 119.922Z" fill="#B55B52"/>
<path d="M157.472 118.483L159.877 120.201L158.631 121.092L155.351 118.612L157.472 118.483Z" fill="#B55B52"/>
<path d="M113.479 79.7777C112.362 83.7717 111.503 86.0532 112.781 88.7427C114.697 92.7958 120.146 92.6831 122.444 89.1078C124.505 85.8868 125.987 79.8959 122.701 77.0131C121.98 76.3724 121.107 75.9267 120.165 75.7185C119.223 75.5103 118.243 75.5464 117.319 75.8235C116.395 76.1005 115.557 76.6092 114.885 77.3013C114.213 77.9934 113.729 78.8459 113.479 79.7777Z" fill="#B55B52"/>
<path d="M121.982 79.8207C120.372 84.4052 118.477 89.4406 113.849 88.4851C110.864 87.8677 110.628 83.0631 109.554 80.8782C108.604 78.9618 108.663 75.1074 110.628 75.059C109.748 73.7814 114.198 69.1056 117.236 71.575C118.015 70.5014 123.625 67.3395 127.78 72.3588C131.693 77.1043 129.777 81.0608 121.982 79.8207Z" fill="#263238"/>
<path d="M118.358 82.7518C118.251 83.7758 118.481 84.8069 119.013 85.6882C119.727 86.837 120.774 86.3968 121.161 85.2212C121.504 84.1475 121.542 82.2955 120.549 81.5493C119.555 80.8031 118.509 81.5171 118.358 82.7518Z" fill="#B55B52"/>
<path d="M152.651 188.898C153.188 188.898 153.724 188.823 153.88 188.582C153.924 188.518 153.948 188.442 153.948 188.364C153.948 188.287 153.924 188.211 153.88 188.147C153.809 188.034 153.698 187.951 153.569 187.916C152.871 187.728 151.421 188.56 151.352 188.598C151.333 188.607 151.319 188.622 151.31 188.64C151.301 188.659 151.299 188.68 151.303 188.7C151.307 188.719 151.316 188.737 151.329 188.751C151.342 188.765 151.36 188.775 151.378 188.78C151.798 188.857 152.224 188.896 152.651 188.898ZM153.316 188.088C153.379 188.079 153.442 188.079 153.504 188.088C153.545 188.095 153.583 188.112 153.617 188.136C153.65 188.16 153.678 188.191 153.698 188.227C153.767 188.351 153.746 188.41 153.698 188.442C153.504 188.716 152.447 188.721 151.668 188.609C152.179 188.33 152.738 188.153 153.316 188.088Z" fill="#3D3FDF"/>
<path d="M151.39 188.78H151.432C151.937 188.555 152.936 187.653 152.855 187.17C152.855 187.057 152.758 186.923 152.49 186.891C152.394 186.882 152.297 186.893 152.204 186.923C152.112 186.952 152.027 187 151.953 187.062C151.416 187.497 151.309 188.625 151.304 188.673C151.302 188.69 151.304 188.707 151.311 188.723C151.317 188.739 151.328 188.753 151.341 188.764C151.356 188.773 151.372 188.778 151.39 188.78ZM152.41 187.089H152.469C152.646 187.089 152.656 187.181 152.662 187.202C152.71 187.487 152.028 188.195 151.513 188.501C151.556 188.028 151.743 187.58 152.05 187.218C152.15 187.133 152.278 187.087 152.41 187.089Z" fill="#3D3FDF"/>
<path d="M146.531 188.684H150.708L151.658 179.005H147.481L146.531 188.684Z" fill="#B55B52"/>
<path d="M150.944 188.201H146.386C146.302 188.201 146.221 188.23 146.156 188.283C146.09 188.335 146.045 188.409 146.026 188.49L145.2 192.184C145.178 192.274 145.178 192.367 145.198 192.458C145.219 192.548 145.26 192.632 145.318 192.704C145.376 192.776 145.449 192.834 145.533 192.873C145.617 192.912 145.709 192.932 145.801 192.93C147.444 192.903 149.822 192.807 151.889 192.807C154.31 192.807 156.398 192.935 159.232 192.935C160.95 192.935 161.428 191.201 160.709 191.046C157.439 190.332 154.771 190.257 151.948 188.512C151.648 188.318 151.301 188.21 150.944 188.201Z" fill="#263238"/>
<path opacity="0.2" d="M151.652 179.01L151.169 183.997H146.987L147.476 179.01H151.652Z" fill="black"/>
<path d="M135.907 188.893C136.084 188.916 136.264 188.904 136.437 188.857C136.609 188.81 136.77 188.729 136.911 188.619C136.961 188.551 136.987 188.47 136.987 188.386C136.987 188.302 136.961 188.22 136.911 188.152C136.879 188.093 136.835 188.042 136.781 188.002C136.727 187.962 136.666 187.935 136.6 187.921C135.988 187.776 134.834 188.566 134.785 188.598C134.77 188.61 134.758 188.625 134.751 188.643C134.743 188.661 134.74 188.681 134.742 188.7C134.746 188.718 134.755 188.735 134.769 188.749C134.782 188.762 134.799 188.771 134.818 188.775C135.176 188.853 135.541 188.893 135.907 188.893ZM136.444 188.099C136.483 188.093 136.523 188.093 136.562 188.099C136.601 188.104 136.637 188.119 136.669 188.141C136.701 188.164 136.727 188.193 136.745 188.227C136.836 188.394 136.782 188.458 136.745 188.485C136.568 188.716 135.714 188.721 135.086 188.619C135.49 188.346 135.951 188.168 136.433 188.099H136.444Z" fill="#3D3FDF"/>
<path d="M134.844 188.78H134.887C135.322 188.544 136.16 187.632 136.068 187.17C136.055 187.096 136.015 187.029 135.958 186.981C135.9 186.933 135.827 186.907 135.752 186.907C135.677 186.898 135.601 186.904 135.529 186.927C135.456 186.949 135.39 186.986 135.333 187.036C134.85 187.433 134.748 188.646 134.742 188.689C134.742 188.707 134.746 188.725 134.755 188.741C134.763 188.757 134.776 188.77 134.791 188.78C134.808 188.786 134.827 188.786 134.844 188.78ZM135.687 187.089H135.73C135.859 187.089 135.87 187.164 135.875 187.191C135.929 187.465 135.392 188.158 134.963 188.485C134.991 188.009 135.164 187.552 135.456 187.175C135.521 187.12 135.603 187.089 135.687 187.089Z" fill="#3D3FDF"/>
<path d="M130.056 188.684H134.232L136.331 179.005H132.155L130.056 188.684Z" fill="#B55B52"/>
<path d="M134.528 188.201H129.836C129.752 188.201 129.672 188.23 129.607 188.283C129.543 188.336 129.499 188.409 129.481 188.49L128.655 192.184C128.635 192.274 128.637 192.368 128.659 192.458C128.68 192.548 128.722 192.632 128.781 192.704C128.84 192.776 128.914 192.833 128.998 192.872C129.082 192.912 129.174 192.931 129.267 192.93C130.904 192.903 131.704 192.807 133.765 192.807C135.038 192.807 136.664 192.935 138.42 192.935C140.175 192.935 140.4 191.201 139.681 191.046C136.46 190.342 136.24 189.371 135.209 188.442C135.019 188.281 134.777 188.195 134.528 188.201Z" fill="#263238"/>
<g opacity="0.2">
<path d="M132.155 179.01H136.331L135.247 183.997H131.071L132.155 179.01Z" fill="black"/>
</g>
<path d="M127.323 133.278C127.323 133.278 158.62 136.59 158.277 152.555C158.055 162.582 156.127 172.497 152.576 181.877H146.37C146.37 181.877 146.687 171.747 146.477 155.4C146.413 150.499 136.519 148.883 126.851 148.314C122.757 148.057 118.816 146.66 115.473 144.282C112.131 141.904 109.519 138.639 107.933 134.856L107.273 133.278H127.323Z" fill="#263238"/>
<path d="M154.095 180.213C154.127 180.213 153.692 183.149 153.692 183.149H145.103L144.867 180.529L154.095 180.213Z" fill="#3D3FDF"/>
<path d="M120.624 133.278C120.624 133.278 143.31 140.793 143.885 150.113C144.958 167.259 136.525 181.877 136.525 181.877H130.26C130.26 181.877 132.638 174.63 133.481 159.094C134.555 139.58 98.1416 159.062 104.965 133.278H120.624Z" fill="#263238"/>
<path d="M138.42 180.213C138.452 180.213 137.63 183.149 137.63 183.149H129.041L129.197 180.529L138.42 180.213Z" fill="#3D3FDF"/>
<path d="M136.986 149.715H102.093C102.093 148.659 102.512 147.646 103.259 146.899C104.006 146.152 105.019 145.732 106.076 145.732H133.003C134.059 145.732 135.073 146.152 135.82 146.899C136.567 147.646 136.986 148.659 136.986 149.715Z" fill="#3D3FDF"/>
<path d="M103.708 149.71L98.4475 193.816H99.5748L106.248 149.71H103.708Z" fill="#3D3FDF"/>
<path opacity="0.4" d="M103.708 149.71L98.4475 193.816H99.5748L106.248 149.71H103.708Z" fill="black"/>
<path d="M110.746 149.71L110.644 193.816H111.766L113.285 149.71H110.746Z" fill="#3D3FDF"/>
<path opacity="0.4" d="M110.746 149.71L110.644 193.816H111.766L113.285 149.71H110.746Z" fill="black"/>
<path d="M135.37 149.71L140.631 193.816H139.504L132.837 149.71H135.37Z" fill="#3D3FDF"/>
<path opacity="0.4" d="M135.37 149.71L140.631 193.816H139.504L132.837 149.71H135.37Z" fill="black"/>
<path d="M128.333 149.71L128.435 193.816H127.313L125.793 149.71H128.333Z" fill="#3D3FDF"/>
<path opacity="0.4" d="M128.333 149.71L128.435 193.816H127.313L125.793 149.71H128.333Z" fill="black"/>
</svg>
