<svg width="376" height="280" viewBox="0 0 376 280" fill="none" xmlns="http://www.w3.org/2000/svg">
<path d="M188 280C268.479 280 333.719 276.191 333.719 271.492C333.719 266.794 268.479 262.985 188 262.985C107.522 262.985 42.2808 266.794 42.2808 271.492C42.2808 276.191 107.522 280 188 280Z" fill="#F5F5F5"/>
<path d="M273.677 36.0747C267.612 33.3992 260.593 31.8886 257.076 37.638C254.768 41.3958 253.618 49.0767 249.56 53.2102C249.218 53.515 248.942 53.8874 248.751 54.3039C248.559 54.7204 248.456 55.1719 248.448 55.6302C248.444 55.6878 248.444 55.7455 248.448 55.8031C248.515 58.1179 250.372 61.2143 255.144 62.3567C254.191 61.7395 253.377 60.9307 252.754 59.9818C254.72 60.8312 256.836 61.2759 258.977 61.2895C264.599 61.2293 268.92 61.6577 271.498 62.9955C274.076 64.3333 278.765 58.4862 278.555 55.8256C279.57 57.3288 280.81 55.8256 281.208 52.128C282.298 42.6208 279.209 34.8271 273.677 36.0747Z" fill="#263238"/>
<path d="M259.872 65.7913C258.9 65.7898 257.95 65.5003 257.143 64.9593C256.336 64.4183 255.707 63.6501 255.336 62.7519C254.965 61.8536 254.869 60.8656 255.059 59.9126C255.25 58.9597 255.718 58.0846 256.406 57.3979C257.094 56.7113 257.97 56.2439 258.923 56.0548C259.876 55.8658 260.864 55.9636 261.762 56.3358C262.659 56.708 263.427 57.338 263.966 58.1462C264.506 58.9543 264.794 59.9043 264.794 60.8761C264.792 62.1804 264.273 63.4306 263.35 64.3521C262.427 65.2737 261.176 65.7913 259.872 65.7913ZM259.872 56.3217C258.971 56.3217 258.09 56.5888 257.341 57.0892C256.592 57.5897 256.008 58.301 255.664 59.1332C255.319 59.9654 255.229 60.8812 255.405 61.7646C255.58 62.6481 256.014 63.4596 256.651 64.0966C257.288 64.7335 258.1 65.1673 258.983 65.343C259.866 65.5188 260.782 65.4286 261.614 65.0839C262.447 64.7391 263.158 64.1554 263.658 63.4064C264.159 62.6575 264.426 61.7769 264.426 60.8761C264.426 59.6682 263.946 58.5098 263.092 57.6556C262.238 56.8015 261.079 56.3217 259.872 56.3217Z" fill="#3D3FDF"/>
<path d="M254.791 82.8817C252.92 86.5606 250.827 90.122 248.523 93.5463C247.36 95.3043 246.106 97.0002 244.765 98.6268C243.349 100.427 241.713 102.043 239.895 103.437C239.549 103.699 239.179 103.928 238.79 104.121C238.314 104.359 237.809 104.533 237.287 104.639C236.263 104.831 235.206 104.753 234.221 104.414C232.834 103.888 231.593 103.04 230.598 101.941C229.796 101.09 229.074 100.166 228.441 99.1829C227.832 98.251 227.291 97.3191 226.795 96.3796C224.9 92.6781 223.389 88.7923 222.286 84.7831L225.57 83.5506C227.306 87.0234 229.248 90.3889 231.387 93.6289C232.348 95.1058 233.48 96.4632 234.762 97.6723C235.135 98.0517 235.593 98.3353 236.1 98.499C236.19 98.499 236.099 98.4464 235.994 98.4614C235.889 98.4765 235.904 98.4614 235.897 98.4614C235.889 98.4614 235.852 98.4614 236.039 98.3262C237.31 97.1617 238.451 95.8641 239.444 94.4556C240.549 92.9525 241.608 91.3517 242.646 89.7284C243.683 88.105 244.66 86.4065 245.652 84.723C246.644 83.0395 247.583 81.2959 248.493 79.6349L254.791 82.8817Z" fill="#B55B52"/>
<path d="M252.709 72.9987C249.763 72.8935 244.547 83.6257 244.547 83.6257L250.161 96.1993C250.161 96.1993 261.172 81.7093 259.931 78.0792C258.646 74.2839 257.008 73.149 252.709 72.9987Z" fill="#3D3FDF"/>
<path opacity="0.6" d="M252.709 72.9987C249.763 72.8935 244.547 83.6257 244.547 83.6257L250.161 96.1993C250.161 96.1993 261.172 81.7093 259.931 78.0792C258.646 74.2839 257.008 73.149 252.709 72.9987Z" fill="white"/>
<path d="M225.097 78.5076L225.969 86.2712L223.924 87.6992C221.121 87.0528 219.949 82.7539 219.949 82.7539L218.686 79.9957C218.415 79.4005 218.333 78.7368 218.45 78.0934C218.566 77.4501 218.877 76.8577 219.34 76.3958L219.911 75.8321C220.174 75.5645 220.492 75.358 220.844 75.2273C221.195 75.0966 221.571 75.0448 221.945 75.0756C222.318 75.1065 222.681 75.2192 223.006 75.4058C223.331 75.5924 223.611 75.8482 223.827 76.1553L224.646 77.3277C224.893 77.6769 225.048 78.0827 225.097 78.5076Z" fill="#B55B52"/>
<path d="M266.959 265.645H260.029L259.398 249.592H266.335L266.959 265.645Z" fill="#B55B52"/>
<path d="M259.398 264.841H267.192C267.321 264.839 267.445 264.887 267.539 264.976C267.633 265.064 267.689 265.186 267.695 265.315L267.958 271.477C267.954 271.803 267.823 272.114 267.593 272.345C267.363 272.575 267.051 272.706 266.726 272.71C264.012 272.665 262.72 272.507 259.293 272.507C257.188 272.507 252.341 272.725 249.432 272.725C246.524 272.725 246.652 269.846 247.892 269.583C253.446 268.419 256.211 266.81 258.195 265.269C258.538 264.999 258.961 264.848 259.398 264.841Z" fill="#263238"/>
<g opacity="0.2">
<path d="M259.398 249.6L259.721 257.874H266.658L266.335 249.6H259.398Z" fill="black"/>
</g>
<path d="M249.928 76.4333C249.778 80.8149 250.537 91.0511 255.144 114.891L283.29 114.049C282.538 103.407 282.283 96.5525 286.101 76.5686C286.22 75.9526 286.21 75.3187 286.073 74.7065C285.936 74.0943 285.674 73.5169 285.304 73.0105C284.934 72.504 284.463 72.0794 283.921 71.7631C283.379 71.4469 282.778 71.2458 282.155 71.1724C280.088 70.9319 277.57 70.7065 275.03 70.6614C270.768 70.4836 266.498 70.6117 262.254 71.0447C258.999 71.4355 255.49 72.1119 253.182 72.6004C252.289 72.7818 251.482 73.2584 250.892 73.9535C250.302 74.6487 249.962 75.5221 249.928 76.4333Z" fill="#3D3FDF"/>
<path opacity="0.7" d="M249.928 76.4333C249.778 80.8149 250.537 91.0511 255.144 114.891L283.29 114.049C282.538 103.407 282.283 96.5525 286.101 76.5686C286.22 75.9526 286.21 75.3187 286.073 74.7065C285.936 74.0943 285.674 73.5169 285.304 73.0105C284.934 72.504 284.463 72.0794 283.921 71.7631C283.379 71.4469 282.778 71.2458 282.155 71.1724C280.088 70.9319 277.57 70.7065 275.03 70.6614C270.768 70.4836 266.498 70.6117 262.254 71.0447C258.999 71.4355 255.49 72.1119 253.182 72.6004C252.289 72.7818 251.482 73.2584 250.892 73.9535C250.302 74.6487 249.962 75.5221 249.928 76.4333Z" fill="white"/>
<path d="M273.332 56.3066C272.648 60.4477 272.069 68.0009 275.03 70.6614C272.806 74.1682 269.3 76.668 265.26 77.6283C258.774 74.3365 262.254 71.0447 262.254 71.0447C266.808 69.8121 266.59 66.4151 265.696 63.2435L273.332 56.3066Z" fill="#B55B52"/>
<path d="M265.268 77.6283L266.109 75.9824L270.611 77.0045L265.268 77.6283Z" fill="#3D3FDF"/>
<path d="M266.109 75.9824C267.552 75.321 274.249 70.962 274.512 69.6017C275.815 69.7829 277.092 70.1211 278.315 70.6088C278.315 70.6088 277.112 75.9824 270.611 79.6274C270.158 78.7382 269.523 77.9542 268.748 77.3262C267.972 76.6983 267.073 76.2404 266.109 75.9824Z" fill="white"/>
<path d="M265.268 77.6283L264.892 75.9824L262.126 76.1778L265.268 77.6283Z" fill="#3D3FDF"/>
<path d="M264.892 75.9824C262.637 74.4793 263.479 71.3979 263.697 70.0376C262.569 70.152 261.463 70.4253 260.412 70.8493C260.412 70.8493 257.023 73.9607 260.307 79.6575C261.455 78.022 263.046 76.7473 264.892 75.9824Z" fill="white"/>
<path opacity="0.2" d="M270.22 59.14L265.711 63.236C265.934 63.972 266.09 64.7266 266.177 65.4907C267.921 65.19 270.273 63.1909 270.401 61.3571C270.474 60.6132 270.413 59.8622 270.22 59.14Z" fill="black"/>
<path d="M275.519 47.5285C275.218 54.3977 275.233 57.2987 271.829 60.8987C266.703 66.2873 258.301 64.4159 256.564 57.5918C254.986 51.4441 255.753 41.2379 262.427 38.3895C263.895 37.7557 265.501 37.5077 267.093 37.669C268.684 37.8302 270.208 38.3954 271.519 39.3109C272.831 40.2265 273.887 41.4619 274.587 42.9001C275.287 44.3383 275.607 45.9314 275.519 47.5285Z" fill="#B55B52"/>
<path d="M270.611 40.2609C268.304 44.1314 265.02 39.2087 262.404 42.1548C260.307 44.5147 256.873 42.0346 254.889 48.7685C255.58 42.9815 256.55 37.8634 262.464 36.1649C266.109 35.1127 273.084 34.7144 270.611 40.2609Z" fill="#263238"/>
<path d="M271.791 37.5779C269.77 38.9833 267.695 41.005 267.943 43.4776C268.191 45.9502 271.739 44.868 272.212 46.6041C272.686 48.3401 270.093 51.9927 273.858 52.3535C278.157 49.956 279.359 49.4299 278.578 45.7473C277.796 42.0646 275.076 37.0893 271.791 37.5779Z" fill="#263238"/>
<path d="M255.084 114.89C255.084 114.89 252.363 166.094 252.22 187.138C252.078 209.038 258.233 256.281 258.233 256.281H267.605C267.605 256.281 265.824 208.542 267.267 186.942C268.837 163.396 274.316 114.282 274.316 114.282L255.084 114.89Z" fill="#3D3FDF"/>
<path d="M268.394 256.604H257.391L256.94 253.094L269.303 252.666L268.394 256.604Z" fill="#263238"/>
<path opacity="0.2" d="M272.34 132.665C271.333 131.402 270.003 132.064 268.266 135.671C262.344 147.959 265.35 167.552 267.883 178.84C269.026 164.771 270.904 146.26 272.34 132.665Z" fill="black"/>
<path d="M263.907 50.1589C263.907 50.7151 263.629 51.1735 263.261 51.181C262.893 51.1885 262.592 50.7376 262.585 50.1815C262.577 49.6253 262.863 49.1593 263.223 49.1518C263.584 49.1443 263.907 49.6028 263.907 50.1589Z" fill="#263238"/>
<path d="M257.609 50.1063C257.609 50.6624 257.324 51.1209 256.963 51.1284C256.602 51.1359 256.294 50.685 256.279 50.1288C256.264 49.5727 256.564 49.1067 256.925 49.1067C257.286 49.1067 257.594 49.5426 257.609 50.1063Z" fill="#263238"/>
<path d="M257.091 49.1293L255.738 48.7685C255.738 48.7685 256.444 49.8057 257.091 49.1293Z" fill="#263238"/>
<path d="M259.804 50.6173C259.331 51.9038 258.681 53.1179 257.872 54.2248C258.161 54.4238 258.489 54.5572 258.834 54.6157C259.18 54.6741 259.534 54.6561 259.871 54.563L259.804 50.6173Z" fill="#A02724"/>
<path d="M263.231 56.4043C262.958 56.4531 262.681 56.4782 262.404 56.4795C262.383 56.4805 262.361 56.4772 262.341 56.4697C262.321 56.4622 262.303 56.4508 262.288 56.436C262.272 56.4213 262.26 56.4035 262.251 56.3839C262.243 56.3642 262.239 56.3431 262.239 56.3217C262.239 56.2791 262.255 56.2381 262.285 56.2073C262.314 56.1765 262.354 56.1583 262.397 56.1563C263.093 56.1596 263.781 55.9987 264.404 55.6866C265.027 55.3745 265.567 54.9201 265.982 54.3601C266.007 54.3296 266.043 54.3093 266.082 54.303C266.122 54.2967 266.162 54.3048 266.196 54.3258C266.229 54.3468 266.255 54.3794 266.266 54.4174C266.278 54.4555 266.276 54.4965 266.26 54.533C265.904 55.0299 265.453 55.4513 264.933 55.7725C264.413 56.0938 263.834 56.3085 263.231 56.4043Z" fill="#263238"/>
<path d="M277.473 53.9994C277.201 54.5993 276.813 55.1398 276.332 55.5898C275.851 56.0399 275.286 56.3907 274.67 56.6223C273.016 57.231 272.047 55.7881 272.415 54.1497C272.723 52.6466 273.918 50.5873 275.669 50.685C276.042 50.7153 276.402 50.8381 276.716 51.0423C277.03 51.2464 277.288 51.5256 277.467 51.8545C277.646 52.1834 277.74 52.5517 277.741 52.9262C277.742 53.3007 277.65 53.6695 277.473 53.9994Z" fill="#B55B52"/>
<path d="M274.572 65.7913C273.6 65.7913 272.649 65.503 271.841 64.9629C271.033 64.4228 270.403 63.6552 270.031 62.757C269.659 61.8589 269.561 60.8706 269.751 59.9172C269.941 58.9637 270.409 58.0879 271.096 57.4005C271.784 56.7131 272.659 56.245 273.613 56.0554C274.566 55.8657 275.555 55.963 276.453 56.3351C277.351 56.7071 278.118 57.3371 278.658 58.1454C279.199 58.9537 279.487 59.904 279.487 60.8761C279.485 62.1791 278.966 63.4281 278.045 64.3495C277.124 65.2708 275.875 65.7893 274.572 65.7913ZM274.572 56.3217C273.671 56.3202 272.789 56.586 272.039 57.0856C271.289 57.5851 270.704 58.2959 270.359 59.128C270.013 59.96 269.921 60.876 270.096 61.76C270.271 62.644 270.704 63.4562 271.341 64.0939C271.978 64.7316 272.789 65.1661 273.673 65.3425C274.557 65.5188 275.473 65.429 276.305 65.0846C277.138 64.7401 277.85 64.1563 278.351 63.4072C278.851 62.658 279.119 61.7772 279.119 60.8761C279.117 59.6701 278.637 58.5139 277.785 57.6605C276.933 56.807 275.778 56.3256 274.572 56.3217Z" fill="#3D3FDF"/>
<path d="M266.402 47.1376C266.334 47.1487 266.264 47.138 266.202 47.107C266.14 47.076 266.089 47.0262 266.057 46.9648C265.35 45.6195 263.411 45.3564 263.389 45.3564C263.306 45.3397 263.233 45.2922 263.185 45.2236C263.136 45.155 263.115 45.0705 263.127 44.9872C263.138 44.9039 263.181 44.8281 263.247 44.7752C263.312 44.7224 263.395 44.6964 263.479 44.7026C263.569 44.7026 265.771 45.0182 266.635 46.6566C266.656 46.6951 266.67 46.7373 266.674 46.7808C266.679 46.8244 266.675 46.8684 266.662 46.9104C266.649 46.9523 266.629 46.9914 266.601 47.0252C266.573 47.0591 266.539 47.0871 266.5 47.1076L266.402 47.1376Z" fill="#263238"/>
<path d="M255.64 46.5965C255.584 46.6078 255.526 46.6041 255.472 46.5856C255.418 46.5671 255.369 46.5346 255.332 46.4913C255.303 46.4587 255.281 46.4205 255.267 46.3791C255.253 46.3377 255.248 46.2938 255.251 46.2503C255.255 46.2067 255.267 46.1643 255.287 46.1257C255.308 46.087 255.336 46.0529 255.37 46.0253C255.758 45.6779 256.224 45.4283 256.729 45.2976C257.233 45.1669 257.762 45.1587 258.271 45.2738C258.354 45.2999 258.425 45.3576 258.467 45.4348C258.509 45.5119 258.519 45.6025 258.496 45.6871C258.484 45.7283 258.464 45.7666 258.437 45.7999C258.41 45.8332 258.376 45.8608 258.339 45.8811C258.301 45.9014 258.26 45.914 258.217 45.9181C258.174 45.9222 258.131 45.9178 258.09 45.9051C257.686 45.8183 257.267 45.8296 256.868 45.9381C256.469 46.0467 256.102 46.2492 255.798 46.5289C255.752 46.5638 255.697 46.587 255.64 46.5965Z" fill="#263238"/>
<path d="M290.407 79.4922C291.67 83.1072 292.782 86.7146 293.789 90.4048C294.3 92.2461 294.788 94.1025 295.202 96.0039C295.405 96.9584 295.608 97.9204 295.781 98.9199C295.97 99.9862 296.096 101.063 296.156 102.144V102.618V103.174C296.156 103.504 296.111 103.707 296.081 103.985C296.036 104.504 295.968 104.977 295.901 105.489C295.765 106.458 295.608 107.405 295.45 108.344C295.134 110.231 294.758 112.102 294.383 113.944C293.631 117.649 292.737 121.324 291.73 124.984L288.265 124.413C288.468 120.655 288.753 116.897 289.054 113.139L289.505 107.57C289.573 106.646 289.633 105.729 289.685 104.835C289.685 104.384 289.738 103.933 289.746 103.512C289.746 103.317 289.746 103.053 289.746 102.918V102.768V102.542C289.636 101.754 289.486 100.971 289.295 100.198C289.099 99.3483 288.874 98.484 288.633 97.6122C288.145 95.8686 287.626 94.1025 287.093 92.3513L283.718 81.7694L290.407 79.4922Z" fill="#B55B52"/>
<path d="M282.155 71.1724C291.384 72.3148 293.211 83.5882 294.526 86.4215L285.47 94.0198C285.47 94.0198 279.735 84.3773 278.901 80.6345C278.037 76.7339 278.818 70.7591 282.155 71.1724Z" fill="#3D3FDF"/>
<path opacity="0.7" d="M282.155 71.1724C291.384 72.3148 293.211 83.5882 294.526 86.4215L285.47 94.0198C285.47 94.0198 279.735 84.3773 278.901 80.6345C278.037 76.7339 278.818 70.7591 282.155 71.1724Z" fill="white"/>
<path d="M256.662 266.051C256.082 266.108 255.501 265.956 255.024 265.623C254.921 265.519 254.847 265.391 254.808 265.25C254.77 265.109 254.769 264.96 254.806 264.819C254.822 264.726 254.859 264.638 254.915 264.562C254.972 264.486 255.045 264.425 255.129 264.383C256.023 263.917 258.646 265.33 258.939 265.495C258.968 265.511 258.991 265.535 259.005 265.565C259.018 265.595 259.022 265.628 259.015 265.66C259.005 265.695 258.985 265.727 258.959 265.752C258.933 265.778 258.9 265.795 258.864 265.803C258.139 265.951 257.402 266.034 256.662 266.051ZM255.572 264.616C255.464 264.609 255.355 264.63 255.257 264.676C255.223 264.692 255.194 264.717 255.172 264.747C255.15 264.777 255.135 264.812 255.129 264.849C255.105 264.941 255.105 265.037 255.129 265.129C255.153 265.221 255.199 265.306 255.264 265.375C255.648 265.758 256.767 265.818 258.346 265.563C257.485 265.087 256.545 264.769 255.572 264.623V264.616Z" fill="#3D3FDF"/>
<path d="M258.834 265.811H258.766C257.977 265.435 256.512 263.939 256.707 263.158C256.752 262.97 256.91 262.737 257.369 262.692C257.527 262.672 257.688 262.688 257.84 262.737C257.992 262.787 258.131 262.869 258.248 262.977C259.045 263.729 258.999 265.57 258.999 265.645C259 265.675 258.993 265.705 258.978 265.731C258.964 265.758 258.942 265.78 258.917 265.796C258.891 265.808 258.863 265.814 258.834 265.811ZM257.466 263H257.369C257.068 263 257.03 263.15 257.023 263.188C256.895 263.661 257.887 264.834 258.676 265.345C258.698 264.58 258.466 263.829 258.015 263.21C257.942 263.14 257.856 263.085 257.762 263.049C257.668 263.013 257.567 262.996 257.466 263Z" fill="#3D3FDF"/>
<path d="M309.001 263.03L302.222 264.488L296.577 249.284L303.356 247.826L309.001 263.03Z" fill="#B55B52"/>
<path d="M301.801 263.796L309.414 262.151C309.545 262.12 309.683 262.138 309.802 262.202C309.921 262.265 310.013 262.37 310.06 262.496L312.315 268.321C312.366 268.468 312.386 268.625 312.372 268.78C312.358 268.936 312.311 269.086 312.234 269.222C312.157 269.358 312.052 269.476 311.926 269.568C311.8 269.66 311.656 269.724 311.503 269.756C308.835 270.282 307.528 270.403 304.176 271.124C302.116 271.568 298.471 272.965 295.57 272.763C292.669 272.56 292.677 269.674 293.902 269.501C299.388 268.712 299.328 266.344 300.771 264.458C301.028 264.125 301.391 263.891 301.801 263.796Z" fill="#263238"/>
<path d="M300.974 265.179C300.402 265.354 299.789 265.333 299.23 265.119C299.101 265.046 298.991 264.943 298.91 264.819C298.829 264.695 298.779 264.553 298.764 264.405C298.747 264.316 298.754 264.223 298.784 264.137C298.815 264.052 298.868 263.975 298.937 263.917C299.689 263.285 302.695 264.075 303.018 264.172C303.052 264.179 303.083 264.196 303.106 264.222C303.129 264.248 303.143 264.28 303.146 264.315C303.148 264.349 303.14 264.383 303.122 264.412C303.105 264.442 303.079 264.466 303.048 264.48C302.38 264.776 301.685 265.01 300.974 265.179ZM299.471 264.044C299.368 264.062 299.27 264.103 299.185 264.165C299.158 264.189 299.138 264.219 299.126 264.254C299.114 264.288 299.111 264.324 299.118 264.36C299.126 264.458 299.157 264.552 299.209 264.634C299.262 264.717 299.334 264.785 299.418 264.834C299.914 265.112 301.049 264.939 302.492 264.368C301.502 264.082 300.469 263.973 299.441 264.044H299.471Z" fill="#3D3FDF"/>
<path d="M302.988 264.488C302.094 264.3 300.162 263.188 300.11 262.391C300.11 262.203 300.177 261.955 300.613 261.812C300.768 261.761 300.932 261.741 301.095 261.755C301.258 261.77 301.416 261.817 301.56 261.895C302.575 262.421 303.153 264.202 303.176 264.277C303.184 264.305 303.184 264.334 303.178 264.361C303.171 264.389 303.158 264.414 303.138 264.435C303.121 264.458 303.098 264.475 303.071 264.484C303.044 264.494 303.016 264.495 302.988 264.488ZM300.733 262.098H300.636C300.35 262.196 300.358 262.316 300.358 262.353C300.358 262.827 301.733 263.744 302.672 264.059C302.431 263.306 301.964 262.645 301.335 262.166C301.162 262.081 300.966 262.057 300.778 262.098H300.733Z" fill="#3D3FDF"/>
<g opacity="0.2">
<path d="M296.577 249.291L299.486 257.13L306.265 255.665L303.356 247.826L296.577 249.291Z" fill="black"/>
</g>
<path d="M283.29 114.049C290.054 124.781 288.153 164.253 289.22 185.326C295.563 204.018 306.754 253.921 306.754 253.921L297.592 255.898C297.592 255.898 277.383 206.37 273.189 185.214C268.56 161.863 262.923 114.049 262.923 114.049H283.29Z" fill="#3D3FDF"/>
<path d="M307.437 254.116L296.69 256.439L295.563 253.087L307.558 250.058L307.437 254.116Z" fill="#263238"/>
<path d="M263.404 49.1819L262.051 48.8211C262.051 48.8211 262.757 49.8583 263.404 49.1819Z" fill="#263238"/>
<path d="M283.658 112.388L284.455 114.883C284.56 115.078 284.335 115.281 284.004 115.296L255.039 116.153C254.791 116.153 254.573 116.048 254.558 115.883L254.227 113.372C254.227 113.199 254.415 113.049 254.693 113.034L283.192 112.192C283.28 112.181 283.37 112.193 283.452 112.227C283.533 112.262 283.605 112.317 283.658 112.388Z" fill="#263238"/>
<path d="M279.923 115.687H280.674C280.825 115.687 280.937 115.604 280.93 115.507L280.471 112.245C280.471 112.147 280.321 112.072 280.171 112.08H279.419C279.269 112.08 279.156 112.162 279.171 112.26L279.622 115.522C279.637 115.62 279.773 115.695 279.923 115.687Z" fill="#3D3FDF"/>
<path d="M257.196 116.364H257.947C258.098 116.364 258.21 116.281 258.195 116.183L257.744 112.921C257.744 112.824 257.594 112.749 257.444 112.756H256.692C256.542 112.756 256.429 112.839 256.437 112.936L256.895 116.198C256.91 116.296 257.045 116.371 257.196 116.364Z" fill="#3D3FDF"/>
<path d="M268.56 116.025H269.311C269.461 116.025 269.574 115.943 269.559 115.845L269.108 112.583C269.108 112.486 268.958 112.41 268.808 112.418H268.056C267.906 112.418 267.793 112.501 267.808 112.598L268.259 115.86C268.274 115.958 268.417 116.033 268.56 116.025Z" fill="#3D3FDF"/>
<path d="M288.709 123.255L283.636 128.764L290.678 129.072C290.678 129.155 292.97 125.315 291.535 122.789L288.709 123.255Z" fill="#B55B52"/>
<path d="M285.484 134.529H287.529C287.979 134.525 288.416 134.377 288.776 134.106C289.136 133.836 289.399 133.457 289.528 133.026L290.693 129.08L283.651 128.772L283.365 132.274C283.345 132.564 283.386 132.854 283.483 133.128C283.581 133.401 283.734 133.652 283.933 133.863C284.132 134.075 284.373 134.243 284.639 134.358C284.906 134.472 285.194 134.53 285.484 134.529Z" fill="#B55B52"/>
<path d="M105.577 264.879L99.106 264.781L99.5118 249.735L105.983 249.832L105.577 264.879Z" fill="#FFC3BD"/>
<path d="M99.0308 264.029L106.103 264.142C106.228 264.14 106.35 264.185 106.443 264.269C106.537 264.352 106.595 264.468 106.606 264.593L107.223 270.38C107.233 270.526 107.213 270.673 107.164 270.81C107.115 270.948 107.038 271.075 106.938 271.181C106.837 271.288 106.716 271.373 106.582 271.43C106.447 271.487 106.302 271.516 106.156 271.515C103.608 271.432 99.9402 271.229 96.731 271.177C92.9732 271.117 93.349 271.274 88.9524 271.177C86.2919 271.139 85.8635 268.434 87.0059 268.17C92.1991 267.141 92.7252 267.088 97.4149 264.45C97.9074 264.171 98.4646 264.026 99.0308 264.029Z" fill="#263238"/>
<path d="M97.5351 71.0973C96.032 75.802 94.3861 80.4467 92.665 85.0687C91.8083 87.3835 90.9364 89.6908 90.0271 91.9906C89.1177 94.2903 88.2083 96.5901 87.2463 98.8899C87.0284 99.4385 86.7202 100.1 86.4496 100.716C86.1791 101.332 85.8785 101.926 85.5854 102.512C85.2923 103.099 84.9841 103.677 84.6685 104.241C84.3528 104.805 84.0522 105.376 83.729 105.924C82.4814 108.179 81.1061 110.253 79.7458 112.358C76.98 116.544 74.049 120.535 70.8924 124.428L66.804 121.752L73.2899 108.645C75.4326 104.468 77.3053 100.158 78.8965 95.7408L83.466 81.8295C84.9691 77.1849 86.5849 72.5328 88.2158 67.9332L97.5351 71.0973Z" fill="#FFC3BD"/>
<path d="M101.887 68.0835C100.301 73.2993 94.8219 86.3238 94.8219 86.3238L82.2634 77.5607C82.2634 77.5607 84.473 69.0831 89.4408 65.0924C96.4904 59.4331 103.931 61.3571 101.887 68.0835Z" fill="#263238"/>
<path opacity="0.2" d="M94.4162 72.3223C89.7941 73.4421 86.2919 78.1018 86.8555 80.7698L94.822 86.3238C94.822 86.3238 96.5281 79.7778 99.5418 75.4187C97.8132 73.6526 95.754 71.9992 94.4162 72.3223Z" fill="black"/>
<path d="M92.387 84.1744C92.838 83.8366 93.2557 83.4566 93.6346 83.0395C93.6346 83.0395 84.3078 76.5386 81.9554 76.4709C81.5461 76.9665 81.3064 77.5802 81.2715 78.222C81.2715 78.222 89.4184 84.2721 92.387 84.1744Z" fill="#3D3FDF"/>
<path d="M69.0963 119.535L62.8508 123.563L67.8487 128.997C67.8487 128.997 73.1096 126.54 72.1701 121.812L69.0963 119.535Z" fill="#FFC3BD"/>
<path d="M60.2354 129.869L63.3167 131.432C63.5695 131.56 63.8532 131.613 64.1351 131.587C64.4169 131.56 64.6856 131.455 64.91 131.282L67.8787 129.027L62.8808 123.594L59.7318 127.652C59.604 127.826 59.5151 128.025 59.4711 128.236C59.4271 128.447 59.429 128.665 59.4768 128.876C59.5245 129.086 59.617 129.283 59.7479 129.455C59.8788 129.626 60.045 129.768 60.2354 129.869Z" fill="#FFC3BD"/>
<path opacity="0.2" d="M99.5117 249.735L99.3013 257.491L105.78 257.596L105.99 249.84L99.5117 249.735Z" fill="black"/>
<path d="M128.792 64.8669C122.742 89.5104 125.14 115.665 124.711 120.956L90.0045 120.392C87.7498 93.0653 90.0045 75.1256 91.4174 67.1892C91.6737 65.7832 92.378 64.4979 93.4252 63.5253C94.4723 62.5527 95.8059 61.945 97.227 61.793L97.6553 61.7479C98.6023 61.6502 99.6244 61.5675 100.662 61.5074C101.248 61.4698 101.849 61.4548 102.45 61.4398C107.387 61.5249 112.315 61.8913 117.211 62.537C118.135 62.6498 119.082 62.7926 119.992 62.9429C120.901 63.0932 121.675 63.236 122.457 63.3938C126.042 64.0928 128.792 64.8669 128.792 64.8669Z" fill="#263238"/>
<path opacity="0.2" d="M121.811 75.4338C121.277 77.8237 122.404 88.6988 124.997 91.3818C125.2 87.9021 125.516 84.2646 125.974 80.5444L121.811 75.4338Z" fill="black"/>
<path d="M116.369 45.845C115.272 50.5047 114.025 59.11 117.226 62.5145C114.558 64.8819 111.048 67.9408 105.434 67.3621C100.857 66.8961 100.925 63.3488 102.481 61.4173C107.817 60.553 107.824 56.6223 107.035 52.8796L116.369 45.845Z" fill="#FFC3BD"/>
<path opacity="0.2" d="M115.445 51.1059L111.597 49.4976L110.161 50.5798C110.312 51.1059 109.928 53.0148 110.161 53.586C110.823 55.1793 113.476 56.0136 115.189 55.743C115.162 54.1931 115.247 52.6433 115.445 51.1059Z" fill="black"/>
<path d="M112.844 25.7108C110.146 27.7099 110.139 27.9654 107.313 27.4168C104.487 26.8682 96.4981 23.9521 98.625 30.8514C91.9061 31.2422 92.8531 38.3144 95.8593 42.2976C98.8655 46.2809 101.872 46.6642 102.217 49.9334C102.653 53.7739 109.154 54.5179 110.064 52.361L119.345 44.4396C122.427 44.6275 119.451 39.6071 120.976 36.7211C121.213 36.2729 121.34 35.7752 121.348 35.2685C121.356 34.7617 121.244 34.2603 121.021 33.805C121.887 33.3895 122.623 32.7449 123.148 31.9412C126.252 27.3792 117.226 22.4941 112.844 25.7108Z" fill="#263238"/>
<path d="M102.323 39.6972C103.134 46.078 103.285 49.8508 106.742 52.9021C111.935 57.4866 119.661 53.9618 120.773 47.4533C121.773 41.5912 120.277 32.1441 113.829 30.0623C112.402 29.6007 110.882 29.5087 109.41 29.795C107.938 30.0813 106.562 30.7365 105.413 31.6992C104.263 32.662 103.376 33.9008 102.836 35.2996C102.295 36.6985 102.119 38.2116 102.323 39.6972Z" fill="#FFC3BD"/>
<path d="M102.962 32.1216C106.321 31.37 109.402 35.2631 107.584 37.9687C105.765 40.6743 109.643 44.0413 105.577 45.7849C102.736 47.0024 101.361 44.0488 99.9854 42.0271C97.8735 38.9382 99.3841 32.9107 102.962 32.1216Z" fill="#263238"/>
<path d="M99.6772 31.3023C103.781 33.5119 104.78 35.6614 110.875 33.557C114.475 32.3245 115.385 35.1578 120.014 34.1583C120.909 28.6944 114.536 27.4844 111.319 28.0857C108.102 28.6869 99.6772 31.3023 99.6772 31.3023Z" fill="#263238"/>
<path d="M99.677 32.3996C99.553 32.3924 99.4311 32.3645 99.3163 32.317C94.9197 30.8139 94.9798 27.4995 94.9873 27.3567C95.0028 27.0689 95.1286 26.7982 95.3385 26.6009C95.5485 26.4035 95.8265 26.2947 96.1146 26.297C96.4017 26.3068 96.6735 26.4288 96.8716 26.6368C97.0697 26.8447 97.1784 27.1221 97.1743 27.4093C97.1743 27.522 97.242 29.3032 100.015 30.2427C100.26 30.3273 100.467 30.4958 100.6 30.7184C100.732 30.941 100.782 31.2034 100.74 31.459C100.697 31.7146 100.566 31.947 100.369 32.1151C100.171 32.2831 99.9211 32.3759 99.662 32.3771L99.677 32.3996Z" fill="#263238"/>
<path d="M101.285 45.8976C102.058 47.14 103.246 48.0691 104.637 48.5205C106.306 48.9714 106.704 47.1452 105.87 45.2963C105.118 43.6354 103.352 41.3958 101.849 41.764C100.346 42.1323 100.218 44.2667 101.285 45.8976Z" fill="#FFC3BD"/>
<path d="M110.124 184.793C109.861 152.168 117.083 120.835 117.083 120.835L90.0271 120.399C90.0271 120.399 93.1385 167.522 94.2208 187.288C95.3481 207.805 96.9189 255.988 96.9189 255.988L107.899 256.153C107.899 256.153 111.642 210.541 110.124 184.793Z" fill="#3D3FDF"/>
<path opacity="0.2" d="M111.198 138.782C103.487 149.342 106.952 169.198 110.116 183.23C110.239 167.754 111.556 152.312 114.054 137.039L111.198 138.782Z" fill="black"/>
<path d="M96.2349 256.191L109.297 256.394L110.033 252.162L95.4758 251.711L96.2349 256.191Z" fill="#263238"/>
<path d="M112.889 41.253C112.889 41.7715 113.228 42.1774 113.566 42.1473C113.904 42.1173 114.159 41.6813 114.122 41.1553C114.084 40.6292 113.784 40.2308 113.445 40.2609C113.107 40.291 112.844 40.7269 112.889 41.253Z" fill="#263238"/>
<path d="M119.022 40.8095C119.06 41.3356 119.36 41.734 119.706 41.7114C120.052 41.6889 120.292 41.2379 120.262 40.7194C120.232 40.2008 119.924 39.7949 119.578 39.8175C119.233 39.84 118.992 40.291 119.022 40.8095Z" fill="#263238"/>
<path d="M117.226 40.8922C117.953 42.4423 118.891 43.884 120.014 45.1761C119.15 46.1005 117.549 45.8225 117.549 45.8225L117.226 40.8922Z" fill="#ED847E"/>
<path d="M114.084 47.3481C113.499 47.3206 112.925 47.173 112.399 46.9145C111.873 46.6559 111.405 46.2919 111.026 45.845C111.008 45.8119 111.003 45.7739 111.012 45.7375C111.02 45.7012 111.041 45.6689 111.07 45.6464C111.1 45.6239 111.137 45.6127 111.174 45.6146C111.211 45.6166 111.246 45.6316 111.274 45.6571C111.703 46.1433 112.242 46.5208 112.845 46.7586C113.449 46.9963 114.1 47.0876 114.746 47.0249C114.766 47.0229 114.787 47.025 114.806 47.0311C114.826 47.0373 114.844 47.0474 114.859 47.0607C114.875 47.0741 114.887 47.0905 114.896 47.1089C114.905 47.1273 114.91 47.1473 114.911 47.1677C114.913 47.2084 114.9 47.2483 114.873 47.2791C114.846 47.3099 114.809 47.3293 114.768 47.3331C114.541 47.3531 114.312 47.3582 114.084 47.3481Z" fill="#263238"/>
<path d="M111.401 39.2388C111.348 39.239 111.295 39.2233 111.251 39.1937C111.217 39.1717 111.187 39.143 111.164 39.1092C111.141 39.0755 111.125 39.0374 111.118 38.9973C111.11 38.9572 111.11 38.916 111.119 38.8761C111.128 38.8362 111.144 38.7985 111.168 38.7653C111.426 38.3489 111.779 38 112.199 37.7477C112.618 37.4954 113.092 37.347 113.581 37.3148C113.662 37.3148 113.741 37.3473 113.799 37.4051C113.856 37.4629 113.889 37.5412 113.889 37.623C113.889 37.7047 113.856 37.7831 113.799 37.8408C113.741 37.8986 113.662 37.9311 113.581 37.9311C113.194 37.9618 112.819 38.0841 112.489 38.288C112.158 38.4918 111.881 38.7714 111.679 39.1035C111.649 39.1486 111.607 39.1848 111.558 39.2086C111.51 39.2323 111.455 39.2428 111.401 39.2388Z" fill="#263238"/>
<path d="M120.428 37.6831C120.377 37.684 120.327 37.6729 120.281 37.6507C120.235 37.6285 120.195 37.5958 120.165 37.5553C119.949 37.2374 119.659 36.9769 119.32 36.7962C118.98 36.6155 118.602 36.5201 118.218 36.5182C118.178 36.5202 118.137 36.5142 118.099 36.5006C118.061 36.4869 118.026 36.4659 117.996 36.4387C117.966 36.4114 117.941 36.3786 117.924 36.3419C117.907 36.3053 117.897 36.2655 117.895 36.2251C117.891 36.1445 117.918 36.0656 117.972 36.0052C118.025 35.9448 118.1 35.9077 118.181 35.9019C118.667 35.8994 119.147 36.0151 119.579 36.2389C120.011 36.4628 120.382 36.7881 120.661 37.1871C120.686 37.2195 120.704 37.2566 120.715 37.2962C120.725 37.3357 120.728 37.377 120.722 37.4176C120.717 37.4582 120.703 37.4973 120.682 37.5325C120.661 37.5678 120.633 37.5985 120.601 37.623C120.549 37.6572 120.489 37.6779 120.428 37.6831Z" fill="#263238"/>
<path d="M97.8583 264.608C97.884 264.599 97.9067 264.583 97.9239 264.562C97.9411 264.54 97.9522 264.515 97.956 264.488C97.961 264.456 97.9565 264.423 97.9432 264.394C97.9298 264.365 97.9082 264.34 97.8809 264.323C97.5878 264.172 95.0024 262.819 94.2058 263.233C94.1322 263.274 94.0699 263.332 94.024 263.403C93.9782 263.474 93.9503 263.555 93.9427 263.639C93.9262 263.777 93.9428 263.917 93.9912 264.048C94.0395 264.179 94.1182 264.296 94.2208 264.39C94.9197 265.029 96.7836 264.804 97.8358 264.616L97.8583 264.608ZM94.4087 263.481C94.8972 263.315 96.3026 263.879 97.3247 264.383C95.8893 264.601 94.822 264.525 94.4312 264.165C94.363 264.103 94.3108 264.026 94.2794 263.939C94.248 263.853 94.2382 263.76 94.2509 263.669C94.2499 263.635 94.2586 263.601 94.2759 263.572C94.2932 263.543 94.3184 263.519 94.3486 263.503L94.4087 263.481Z" fill="#3D3FDF"/>
<path d="M97.8584 264.608H97.896C97.9177 264.593 97.9352 264.573 97.947 264.549C97.9589 264.526 97.9646 264.499 97.9636 264.473C97.9636 264.398 97.8058 262.647 96.9941 261.955C96.8785 261.854 96.7437 261.777 96.5978 261.73C96.4519 261.682 96.2978 261.664 96.1448 261.677C95.724 261.715 95.5962 261.933 95.5661 262.098C95.4384 262.849 96.964 264.262 97.7381 264.623C97.7788 264.63 97.8205 264.624 97.8584 264.608ZM96.0171 261.993C96.0695 261.986 96.1225 261.986 96.1749 261.993C96.2872 261.983 96.4004 261.995 96.5076 262.03C96.6148 262.065 96.7138 262.121 96.7987 262.196C97.2716 262.767 97.5575 263.47 97.6179 264.21C96.8288 263.721 95.7916 262.601 95.8668 262.166C95.8743 262.105 95.8893 262.038 96.0171 261.993Z" fill="#3D3FDF"/>
<path d="M151.783 264.879L145.282 264.781L141.118 249.735L147.626 249.832L151.783 264.879Z" fill="#FFC3BD"/>
<path d="M144.823 264.029L151.918 264.142C152.05 264.145 152.177 264.191 152.282 264.272C152.386 264.353 152.461 264.466 152.497 264.593L154.105 270.38C154.147 270.514 154.157 270.656 154.133 270.795C154.108 270.933 154.051 271.064 153.965 271.175C153.88 271.287 153.768 271.376 153.641 271.435C153.513 271.494 153.373 271.522 153.233 271.515C150.67 271.432 149.836 271.229 146.619 271.177C142.862 271.117 144.62 271.274 140.209 271.177C137.541 271.139 136.654 268.449 137.751 268.17C141.223 267.419 141.93 265.983 143.29 264.45C143.503 264.279 143.749 264.154 144.013 264.082C144.277 264.009 144.552 263.991 144.823 264.029Z" fill="#263238"/>
<path opacity="0.2" d="M141.118 249.735L143.267 257.491L149.776 257.596L147.626 249.84L141.118 249.735Z" fill="black"/>
<path d="M135.519 185.251C131.836 156.091 129.086 127.472 124.711 120.956L101.781 120.587C101.781 120.587 115.046 167.935 119.526 187.386C124.17 207.58 140.306 254.026 140.306 254.026L150.768 254.177C150.768 254.177 142.388 207.805 135.519 185.251Z" fill="#3D3FDF"/>
<path d="M138.863 256.191L151.918 256.394L152.654 252.162L138.104 251.711L138.863 256.191Z" fill="#263238"/>
<path d="M145.229 264.548C145.258 264.551 145.287 264.546 145.312 264.533C145.338 264.519 145.358 264.498 145.372 264.473C145.39 264.446 145.4 264.415 145.4 264.383C145.4 264.35 145.39 264.319 145.372 264.292C145.154 264.044 143.192 261.88 142.298 262.038C142.214 262.049 142.134 262.081 142.067 262.133C142 262.184 141.947 262.253 141.915 262.331C141.848 262.453 141.813 262.59 141.813 262.729C141.813 262.868 141.848 263.005 141.915 263.128C142.351 263.969 144.169 264.398 145.229 264.578V264.548ZM142.381 262.293C142.899 262.293 144.027 263.323 144.808 264.142C143.388 263.857 142.411 263.391 142.163 262.94C142.12 262.859 142.098 262.768 142.098 262.677C142.098 262.585 142.12 262.495 142.163 262.414C142.174 262.381 142.194 262.353 142.221 262.332C142.247 262.31 142.279 262.297 142.313 262.293H142.381Z" fill="#3D3FDF"/>
<path d="M145.229 264.548H145.274C145.3 264.54 145.323 264.525 145.341 264.505C145.36 264.486 145.373 264.461 145.379 264.435C145.379 264.368 145.868 262.677 145.379 261.745C145.306 261.61 145.205 261.491 145.083 261.397C144.962 261.302 144.822 261.234 144.673 261.196C144.267 261.083 144.072 261.241 143.989 261.391C143.613 262.03 144.56 263.894 145.161 264.503C145.179 264.524 145.203 264.539 145.229 264.548ZM144.395 261.467H144.56C144.669 261.495 144.77 261.546 144.858 261.616C144.946 261.686 145.019 261.773 145.071 261.872C145.321 262.571 145.35 263.329 145.154 264.044C144.575 263.293 143.989 261.91 144.214 261.519C144.233 261.486 144.263 261.459 144.298 261.444C144.333 261.429 144.373 261.427 144.41 261.437L144.395 261.467Z" fill="#3D3FDF"/>
<path d="M131.543 71.894L131.806 72.4877L132.122 73.1641L132.768 74.5469C133.226 75.4714 133.707 76.3883 134.211 77.2901C135.211 79.1164 136.285 80.8976 137.435 82.6111C138.572 84.3278 139.799 85.9835 141.11 87.5714C141.749 88.3756 142.463 89.0745 143.124 89.8787L144.192 90.9609L144.725 91.5096L144.793 91.5772C144.793 91.5772 144.793 91.5772 144.74 91.5772C144.688 91.5772 144.552 91.5772 144.575 91.5772C144.7 91.6326 144.839 91.6484 144.973 91.6223C145.67 91.5302 146.347 91.3272 146.98 91.0211C148.73 90.1632 150.387 89.1282 151.925 87.9322C155.344 85.3073 158.607 82.4841 161.695 79.4772L165.513 82.4834C164.258 84.4579 162.896 86.3622 161.432 88.1877C159.961 90.035 158.38 91.7918 156.698 93.4486C154.908 95.2542 152.913 96.8433 150.753 98.1834C149.439 98.9884 148.009 99.5866 146.514 99.9571C145.547 100.181 144.55 100.252 143.56 100.168C142.385 100.061 141.245 99.7073 140.216 99.1304C139.968 98.9725 139.705 98.8147 139.464 98.6419L139.111 98.3788L138.938 98.2435L138.856 98.1684L138.149 97.5671L136.751 96.3646C135.864 95.5154 134.948 94.6887 134.136 93.7793C132.452 92.0217 130.89 90.151 129.461 88.1802C128.028 86.2343 126.718 84.2011 125.538 82.0926C124.952 81.0329 124.396 79.9657 123.862 78.8684C123.599 78.3198 123.328 77.7711 123.111 77.2075L122.742 76.3432L122.366 75.3812L131.543 71.894Z" fill="#FFC3BD"/>
<path d="M128.792 64.8669C134.805 66.7157 137.563 80.1235 137.563 80.1235L128.409 88.1652C124.864 84.5332 122.092 80.22 120.262 75.4864C117.173 67.2042 121.54 62.6197 128.792 64.8669Z" fill="#263238"/>
<path d="M138.006 80.3715C137.839 79.8319 137.623 79.3086 137.36 78.8083C137.36 78.8083 128.101 85.4145 127.252 87.6015C127.581 88.1537 128.079 88.5857 128.672 88.8341C128.672 88.8341 137.075 83.1824 138.006 80.3715Z" fill="#3D3FDF"/>
<path d="M160.621 80.9051L164.131 75.3586L169.339 81.2583C169.339 81.2583 165.581 85.8954 162.771 84.2646L160.621 80.9051Z" fill="#FFC3BD"/>
<path d="M170.767 73.8029L172.27 76.1778C172.558 76.6345 172.672 77.1792 172.592 77.7129C172.512 78.2466 172.243 78.7339 171.834 79.0863L169.362 81.2583L164.153 75.3586L167.618 73.1039C167.87 72.9396 168.152 72.8272 168.447 72.7733C168.743 72.7195 169.046 72.7253 169.34 72.7904C169.633 72.8555 169.91 72.9787 170.156 73.1525C170.401 73.3264 170.609 73.5475 170.767 73.8029Z" fill="#FFC3BD"/>
<path d="M246.975 89.766C243.531 86.3177 239.439 83.5838 234.935 81.7214C230.431 79.859 225.604 78.9047 220.73 78.9135H204.857V82.4759C201.007 84.2986 197.499 86.7697 194.486 89.781C191.009 86.296 186.872 83.5398 182.316 81.6737C177.761 79.8077 172.879 78.8693 167.956 78.9135H152.091V82.6111C146.756 85.1879 142.116 89.0041 138.559 93.7409C135.001 98.4777 132.629 103.997 131.641 109.839C130.653 115.68 131.077 121.672 132.879 127.316C134.681 132.959 137.807 138.089 141.997 142.277L178.448 178.728H178.275V194.766H189.789C192.797 194.766 195.681 193.571 197.808 191.444L246.975 142.277C250.424 138.83 253.16 134.737 255.027 130.232C256.894 125.727 257.855 120.898 257.855 116.022C257.855 111.145 256.894 106.316 255.027 101.811C253.16 97.3062 250.424 93.2131 246.975 89.766Z" fill="#3D3FDF"/>
<path opacity="0.2" d="M246.975 89.766C243.531 86.3177 239.439 83.5838 234.935 81.7214C230.431 79.859 225.604 78.9047 220.73 78.9135H204.857V82.4759C201.007 84.2986 197.499 86.7697 194.486 89.781C191.009 86.296 186.872 83.5398 182.316 81.6737C177.761 79.8077 172.879 78.8693 167.956 78.9135H152.091V82.6111C146.756 85.1879 142.116 89.0041 138.559 93.7409C135.001 98.4777 132.629 103.997 131.641 109.839C130.653 115.68 131.077 121.672 132.879 127.316C134.681 132.959 137.807 138.089 141.997 142.277L178.448 178.728H178.275V194.766H189.789C192.797 194.766 195.681 193.571 197.808 191.444L246.975 142.277C250.424 138.83 253.16 134.737 255.027 130.232C256.894 125.727 257.855 120.898 257.855 116.022C257.855 111.145 256.894 106.316 255.027 101.811C253.16 97.3062 250.424 93.2131 246.975 89.766Z" fill="black"/>
<path d="M230.764 89.766C223.803 82.8066 214.363 78.8969 204.519 78.8969C194.676 78.8969 185.236 82.8066 178.275 89.766C171.292 82.9119 161.884 79.0925 152.099 79.1386C142.314 79.1848 132.943 83.0926 126.025 90.0121C119.106 96.9317 115.2 106.303 115.155 116.088C115.11 125.873 118.931 135.28 125.786 142.262L178.275 194.751L230.764 142.262C234.211 138.815 236.945 134.723 238.811 130.22C240.676 125.716 241.636 120.889 241.636 116.014C241.636 111.139 240.676 106.312 238.811 101.809C236.945 97.3049 234.211 93.2128 230.764 89.766Z" fill="#3D3FDF"/>
<path d="M154.789 173.922L154.257 174.454L162.372 182.569L162.904 182.037L154.789 173.922Z" fill="#3D3FDF"/>
<path d="M166.096 185.244L165.564 185.776L169.263 189.474L169.795 188.943L166.096 185.244Z" fill="#3D3FDF"/>
<path opacity="0.2" d="M230.764 89.766C223.803 82.8066 214.363 78.8969 204.519 78.8969C194.676 78.8969 185.236 82.8066 178.275 89.766C171.292 82.9119 161.884 79.0925 152.099 79.1386C142.314 79.1848 132.943 83.0926 126.025 90.0121C119.106 96.9317 115.2 106.303 115.155 116.088C115.11 125.873 118.931 135.28 125.786 142.262L178.275 194.751L230.764 142.262C234.211 138.815 236.945 134.723 238.811 130.22C240.676 125.716 241.636 120.889 241.636 116.014C241.636 111.139 240.676 106.312 238.811 101.809C236.945 97.3049 234.211 93.2128 230.764 89.766Z" fill="black"/>
<path d="M131.197 136.843C128.462 134.108 126.292 130.861 124.812 127.287C123.332 123.713 122.57 119.882 122.57 116.014C122.57 112.146 123.332 108.315 124.812 104.741C126.292 101.167 128.462 97.92 131.197 95.1847C133.933 92.4493 137.18 90.2795 140.754 88.7992C144.328 87.3188 148.158 86.5569 152.027 86.5569C155.895 86.5569 159.726 87.3188 163.3 88.7992C166.874 90.2795 170.121 92.4493 172.856 95.1847L178.275 100.603L183.694 95.1847C186.429 92.4493 189.676 90.2795 193.25 88.7992C196.824 87.3188 200.655 86.5569 204.523 86.5569C208.391 86.5569 212.222 87.3188 215.796 88.7992C219.37 90.2795 222.617 92.4493 225.352 95.1847C228.088 97.92 230.258 101.167 231.738 104.741C233.218 108.315 233.98 112.146 233.98 116.014C233.98 119.882 233.218 123.713 231.738 127.287C230.258 130.861 228.088 134.108 225.352 136.843L178.275 183.921L131.197 136.843Z" fill="#3D3FDF"/>
<path d="M140.021 110.945H152.962V114.349H148.618V124.758H144.357V114.387H140.021V110.945Z" fill="white"/>
<path d="M154.932 110.945H159.193V115.74H163.845V110.922H168.121V124.758H163.845V119.189H159.193V124.758H154.932V110.945Z" fill="white"/>
<path d="M179.387 122.444H174.555L173.886 124.698H169.534L174.712 110.922H179.357L184.535 124.758H180.079L179.387 122.444ZM178.508 119.437L177.005 114.485L175.502 119.437H178.508Z" fill="white"/>
<path d="M185.918 110.945H189.894L195.08 118.566V110.945H199.093V124.758H195.08L189.924 117.19V124.758H185.918V110.945Z" fill="white"/>
<path d="M201.941 110.945H206.203V116.153L210.659 110.945H216.319L211.298 116.146L216.559 124.758H211.298L208.39 119.092L206.195 121.399V124.758H201.934L201.941 110.945Z" fill="white"/>
<path d="M155.142 134.04H159.869L162.642 138.692L165.423 134.04H170.128L164.769 142.044V147.816H160.508V142.044L155.142 134.04Z" fill="white"/>
<path d="M169.813 140.939C169.718 139.981 169.837 139.014 170.161 138.108C170.485 137.201 171.005 136.378 171.685 135.696C172.364 135.014 173.186 134.491 174.092 134.165C174.997 133.838 175.964 133.716 176.922 133.807C179.214 133.807 180.988 134.423 182.228 135.656C182.873 136.346 183.37 137.161 183.689 138.05C184.009 138.939 184.143 139.884 184.085 140.827C184.137 142.193 183.858 143.552 183.273 144.787C182.746 145.805 181.927 146.643 180.921 147.192C179.74 147.803 178.423 148.101 177.095 148.057C175.767 148.1 174.447 147.843 173.232 147.305C172.191 146.787 171.329 145.967 170.759 144.953C170.09 143.724 169.763 142.338 169.813 140.939ZM174.066 140.939C173.965 141.998 174.231 143.059 174.818 143.946C175.092 144.232 175.42 144.46 175.785 144.616C176.149 144.772 176.541 144.852 176.937 144.852C177.333 144.852 177.726 144.772 178.09 144.616C178.454 144.46 178.783 144.232 179.057 143.946C179.553 143.352 179.808 142.285 179.808 140.737C179.904 139.73 179.637 138.723 179.057 137.896C178.791 137.598 178.462 137.364 178.094 137.209C177.726 137.054 177.328 136.983 176.93 137.001C176.539 136.986 176.15 137.06 175.792 137.218C175.433 137.375 175.116 137.612 174.863 137.911C174.251 138.802 173.97 139.878 174.066 140.954V140.939Z" fill="white"/>
<path d="M195.343 134.04H199.596V142.247C199.602 143.033 199.472 143.813 199.213 144.554C198.963 145.268 198.554 145.915 198.018 146.448C197.539 146.949 196.957 147.338 196.312 147.591C195.346 147.925 194.328 148.083 193.306 148.057C192.572 148.05 191.84 148.003 191.111 147.914C190.419 147.85 189.743 147.659 189.12 147.35C188.561 147.053 188.066 146.649 187.662 146.163C187.249 145.705 186.939 145.164 186.752 144.577C186.51 143.823 186.379 143.039 186.362 142.247V134.04H190.608V142.443C190.59 142.764 190.636 143.085 190.743 143.388C190.85 143.691 191.016 143.97 191.232 144.209C191.717 144.614 192.328 144.835 192.96 144.835C193.592 144.835 194.204 144.614 194.689 144.209C194.907 143.971 195.075 143.691 195.182 143.386C195.29 143.081 195.334 142.758 195.313 142.435L195.343 134.04Z" fill="white"/>
</svg>
